{
  "accessors": [
    {
      "bufferView": 1,
      "componentType": 5126,
      "count": 802,
      "max": [
        2.7074599266052246,
        1.0981400012969971,
        3.898900032043457
      ],
      "min": [
        -3.9681100845336914,
        -1.344249963760376,
        -4.8959999084472656
      ],
      "type": "VEC3"
    },
    {
      "bufferView": 1,
      "byteOffset": 9624,
      "componentType": 5126,
      "count": 802,
      "max": [
        0.99970686435699463,
        0.99941927194595337,
        0.99988281726837158
      ],
      "min": [
        -0.99890768527984619,
        -0.99977916479110718,
        -0.99960613250732422
      ],
      "type": "VEC3"
    },
    {
      "bufferView": 0,
      "componentType": 5125,
      "count": 2886,
      "max": [
        801
      ],
      "min": [
        0
      ],
      "type": "SCALAR"
    }
  ],
  "asset": {
    "extras": {
      "author": "Rossano.Marano (https://sketchfab.com/Rossano.Marano)",
      "license": "CC-BY-4.0 (http://creativecommons.org/licenses/by/4.0/)",
      "source": "https://sketchfab.com/models/879220b86319475da415e6b3ebd3fd0a",
      "title": "Gatto"
    },
    "generator": "Sketchfab-3.22.12",
    "version": "2.0"
  },
  "bufferViews": [
    {
      "buffer": 0,
      "byteLength": 11544,
      "byteOffset": 0,
      "name": "floatBufferViews",
      "target": 34963
    },
    {
      "buffer": 0,
      "byteLength": 19248,
      "byteOffset": 11544,
      "byteStride": 12,
      "name": "floatBufferViews",
      "target": 34962
    }
  ],
  "buffers": [
    {
      "byteLength": 30792,
      "uri": "scene.bin"
    }
  ],
  "materials": [
    {
      "doubleSided": true,
      "emissiveFactor": [
        0,
        0,
        0
      ],
      "name": "Materiale.001",
      "pbrMetallicRoughness": {
        "baseColorFactor": [
          0.60656368729999999,
          0.20849597449999999,
          0.0074407496000000002,
          1
        ],
        "metallicFactor": 0,
        "roughnessFactor": 0.40000000000000002
      }
    }
  ],
  "meshes": [
    {
      "name": "Cilindro_0",
      "primitives": [
        {
          "attributes": {
            "NORMAL": 1,
            "POSITION": 0
          },
          "indices": 2,
          "material": 0,
          "mode": 4
        }
      ]
    }
  ],
  "nodes": [
    {
      "children": [
        1
      ],
      "name": "RootNode (gltf orientation matrix)",
      "rotation": [
        -0.70710678118654746,
        -0,
        -0,
        0.70710678118654757
      ]
    },
    {
      "children": [
        2
      ],
      "name": "RootNode (model correction matrix)"
    },
    {
      "children": [
        3,
        5
      ],
      "name": "Root"
    },
    {
      "children": [
        4
      ],
      "matrix": [
        -0.29086000000000006,
        0.95517000000000007,
        -0.05519000000000001,
        0,
        -0.77110000000000001,
        -0.19988000000000003,
        0.60452000000000006,
        0,
        0.56639000000000006,
        0.21839000000000003,
        0.7946700000000001,
        0,
        2.0011999999999999,
        -5.0140899999999995,
        1.4609999999999999,
        1
      ],
      "name": "Lamp"
    },
    {
      "name": "Lamp"
    },
    {
      "children": [
        6
      ],
      "matrix": [
        0,
        0,
        -0.14945000000000003,
        0,
        0,
        0.14945000000000003,
        0,
        0,
        0.14945000000000003,
        0,
        0,
        0,
        0.073180000000000009,
        0.030620000000000005,
        -0.09334000000000002,
        1
      ],
      "name": "Cilindro"
    },
    {
      "mesh": 0,
      "name": "Cilindro_0"
    }
  ],
  "scene": 0,
  "scenes": [
    {
      "name": "OSG_Scene",
      "nodes": [
        0
      ]
    }
  ]
}

